<svg width="151" height="54" viewBox="0 0 151 54" fill="none" xmlns="http://www.w3.org/2000/svg">
<g clip-path="url(#clip0_2001_126)">
<path d="M13.8285 30.3725C13.8285 30.3725 14.0215 32.9483 13.9442 34.2554C13.8671 35.5625 13.7126 36.6773 13.7126 36.6773L14.9481 46.5959L15.0253 47.6339C15.0253 47.6339 17.1875 48.9026 21.7048 48.9026C28.4615 48.9026 31.4731 47.8262 32.4769 45.6733C33.2877 43.9433 31.8591 40.022 31.5888 38.6765C30.6236 34.2169 31.2028 30.9876 31.2028 30.9876L13.8285 30.3725Z" fill="#C4A878"/>
<path d="M13.8285 30.3725C13.8285 30.3725 14.0215 32.9483 13.9442 34.2554C13.8671 35.5625 13.7126 36.6773 13.7126 36.6773L14.9481 46.5959L15.0253 47.6339C15.0253 47.6339 17.1875 48.9026 21.7048 48.9026C28.4615 48.9026 31.4731 47.8262 32.4769 45.6733C33.2877 43.9433 31.8591 40.022 31.5888 38.6765C30.6236 34.2169 31.2028 30.9876 31.2028 30.9876L13.8285 30.3725Z" fill="#C4A878"/>
<path d="M13.8285 30.3725C13.8285 30.3725 14.0215 32.9483 13.9442 34.2554C13.8671 35.5625 13.7126 36.6773 13.7126 36.6773L14.9481 46.5959L15.0253 47.6339C15.0253 47.6339 17.1875 48.9026 21.7048 48.9026C28.4615 48.9026 31.4731 47.8262 32.4769 45.6733C33.2877 43.9433 31.8591 40.022 31.5888 38.6765C30.6236 34.2169 31.2028 30.9876 31.2028 30.9876L13.8285 30.3725Z" fill="#C4A878"/>
<path d="M13.8285 30.3725C13.8285 30.3725 14.0215 32.9483 13.9442 34.2554C13.8671 35.5625 13.7126 36.6773 13.7126 36.6773L14.9481 46.5959L15.0253 47.6339C15.0253 47.6339 17.1875 48.9026 21.7048 48.9026C28.4615 48.9026 31.4731 47.8262 32.4769 45.6733C33.2877 43.9433 31.8591 40.022 31.5888 38.6765C30.6236 34.2169 31.2028 30.9876 31.2028 30.9876L13.8285 30.3725Z" fill="#C4A878"/>
<path d="M11.8979 44.8659C12.3612 46.9804 15.2569 47.7877 15.2569 47.7877C15.2569 47.7877 19.4268 48.0184 22.0908 47.6723C24.7935 47.2879 27.0329 46.6728 27.2645 45.0966C27.4962 43.5204 27.4189 42.4439 27.3417 40.7908C27.3031 40.0604 27.2259 38.0228 27.2259 38.0228C27.2259 38.0228 24.1371 38.1766 20.0059 37.8691C15.9519 37.5615 13.7511 36.6004 13.7511 36.6004C13.7511 36.6004 13.172 39.253 12.7473 40.3295C12.3226 41.329 11.4346 42.7515 11.8979 44.8659Z" fill="#E8D4AF"/>
<path d="M11.8979 44.8659C12.3612 46.9804 15.2569 47.7877 15.2569 47.7877C15.2569 47.7877 19.4268 48.0184 22.0908 47.6723C24.7935 47.2879 27.0329 46.6728 27.2645 45.0966C27.4962 43.5204 27.4189 42.4439 27.3417 40.7908C27.3031 40.0604 27.2259 38.0228 27.2259 38.0228C27.2259 38.0228 24.1371 38.1766 20.0059 37.8691C15.9519 37.5615 13.7511 36.6004 13.7511 36.6004C13.7511 36.6004 13.172 39.253 12.7473 40.3295C12.3226 41.329 11.4346 42.7515 11.8979 44.8659Z" fill="#E8D4AF"/>
<path d="M11.8979 44.8659C12.3612 46.9804 15.2569 47.7877 15.2569 47.7877C15.2569 47.7877 19.4268 48.0184 22.0908 47.6723C24.7935 47.2879 27.0329 46.6728 27.2645 45.0966C27.4962 43.5204 27.4189 42.4439 27.3417 40.7908C27.3031 40.0604 27.2259 38.0228 27.2259 38.0228C27.2259 38.0228 24.1371 38.1766 20.0059 37.8691C15.9519 37.5615 13.7511 36.6004 13.7511 36.6004C13.7511 36.6004 13.172 39.253 12.7473 40.3295C12.3226 41.329 11.4346 42.7515 11.8979 44.8659Z" fill="#E8D4AF"/>
<path d="M11.8979 44.8659C12.3612 46.9804 15.2569 47.7877 15.2569 47.7877C15.2569 47.7877 19.4268 48.0184 22.0908 47.6723C24.7935 47.2879 27.0329 46.6728 27.2645 45.0966C27.4962 43.5204 27.4189 42.4439 27.3417 40.7908C27.3031 40.0604 27.2259 38.0228 27.2259 38.0228C27.2259 38.0228 24.1371 38.1766 20.0059 37.8691C15.9519 37.5615 13.7511 36.6004 13.7511 36.6004C13.7511 36.6004 13.172 39.253 12.7473 40.3295C12.3226 41.329 11.4346 42.7515 11.8979 44.8659Z" fill="#E8D4AF"/>
<path d="M22.6345 33.6477C37.7309 33.6862 44.5263 23.4984 44.2946 13.3492C44.0243 4.23787 30.0476 3.12299 23.0978 3.00766C12.6733 2.85388 0.240925 4.96831 0.00926876 13.6183C-0.299609 23.6906 7.07485 33.6477 22.6345 33.6477Z" fill="#E6441F"/>
<path d="M22.6345 33.6477C37.7309 33.6862 44.5263 23.4984 44.2946 13.3492C44.0243 4.23787 30.0476 3.12299 23.0978 3.00766C12.6733 2.85388 0.240925 4.96831 0.00926876 13.6183C-0.299609 23.6906 7.07485 33.6477 22.6345 33.6477Z" fill="#E6441F"/>
<path d="M22.6345 33.6477C37.7309 33.6862 44.5263 23.4984 44.2946 13.3492C44.0243 4.23787 30.0476 3.12299 23.0978 3.00766C12.6733 2.85388 0.240925 4.96831 0.00926876 13.6183C-0.299609 23.6906 7.07485 33.6477 22.6345 33.6477Z" fill="#E6441F"/>
<path d="M22.6345 33.6477C37.7309 33.6862 44.5263 23.4984 44.2946 13.3492C44.0243 4.23787 30.0476 3.12299 23.0978 3.00766C12.6733 2.85388 0.240925 4.96831 0.00926876 13.6183C-0.299609 23.6906 7.07485 33.6477 22.6345 33.6477Z" fill="#E6441F"/>
<path d="M37.5349 25.2698C39.2963 23.603 40.2684 20.4257 38.9386 18.9074C37.6844 17.5055 35.3527 18.5489 33.7468 20.141C32.1409 21.7331 30.5664 23.8255 31.428 25.6832C32.5158 27.9286 35.5385 27.164 37.5349 25.2698Z" fill="#FE8468"/>
<path d="M37.5349 25.2698C39.2963 23.603 40.2684 20.4257 38.9386 18.9074C37.6844 17.5055 35.3527 18.5489 33.7468 20.141C32.1409 21.7331 30.5664 23.8255 31.428 25.6832C32.5158 27.9286 35.5385 27.164 37.5349 25.2698Z" fill="#FE8468"/>
<path d="M37.5349 25.2698C39.2963 23.603 40.2684 20.4257 38.9386 18.9074C37.6844 17.5055 35.3527 18.5489 33.7468 20.141C32.1409 21.7331 30.5664 23.8255 31.428 25.6832C32.5158 27.9286 35.5385 27.164 37.5349 25.2698Z" fill="#FE8468"/>
<path d="M37.5349 25.2698C39.2963 23.603 40.2684 20.4257 38.9386 18.9074C37.6844 17.5055 35.3527 18.5489 33.7468 20.141C32.1409 21.7331 30.5664 23.8255 31.428 25.6832C32.5158 27.9286 35.5385 27.164 37.5349 25.2698Z" fill="#FE8468"/>
<path d="M37.3783 9.54765C37.3783 11.6412 30.7153 13.3384 22.4961 13.3384C14.277 13.3384 7.61409 11.6412 7.61409 9.54765C7.61409 7.45409 14.277 5.75692 22.4961 5.75692C30.7153 5.75692 37.3783 7.45409 37.3783 9.54765Z" fill="#FE8468"/>
<path d="M37.3783 9.54765C37.3783 11.6412 30.7153 13.3384 22.4961 13.3384C14.277 13.3384 7.61409 11.6412 7.61409 9.54765C7.61409 7.45409 14.277 5.75692 22.4961 5.75692C30.7153 5.75692 37.3783 7.45409 37.3783 9.54765Z" fill="#FE8468"/>
<path d="M37.3783 9.54765C37.3783 11.6412 30.7153 13.3384 22.4961 13.3384C14.277 13.3384 7.61409 11.6412 7.61409 9.54765C7.61409 7.45409 14.277 5.75692 22.4961 5.75692C30.7153 5.75692 37.3783 7.45409 37.3783 9.54765Z" fill="#FE8468"/>
<path d="M37.3783 9.54765C37.3783 11.6412 30.7153 13.3384 22.4961 13.3384C14.277 13.3384 7.61409 11.6412 7.61409 9.54765C7.61409 7.45409 14.277 5.75692 22.4961 5.75692C30.7153 5.75692 37.3783 7.45409 37.3783 9.54765Z" fill="#FE8468"/>
<path d="M127.993 34.6273C126.989 34.6273 126.147 34.3774 125.468 33.8774C124.818 33.3481 124.36 32.6424 124.094 31.7602C123.858 30.9367 123.71 30.0398 123.651 29.0694C123.622 28.099 123.607 26.7316 123.607 24.9671C123.607 23.3203 123.533 22.0999 123.386 21.306C123.267 20.512 122.958 20.115 122.455 20.115C121.865 20.115 121.451 20.3797 121.215 20.9089C120.979 21.4089 120.86 22.1293 120.86 23.0704C120.86 23.9232 120.979 25.2612 121.215 27.0844C121.244 27.4373 121.303 27.9961 121.392 28.7606C121.481 29.5252 121.525 30.1575 121.525 30.6574C121.525 32.0689 121.2 33.0688 120.551 33.6569C119.93 34.2451 119.014 34.5391 117.803 34.5391C116.357 34.5391 115.101 33.7598 114.038 32.2012C112.975 30.6427 112.177 28.7018 111.646 26.3787C111.114 24.0261 110.848 21.7177 110.848 19.4533C110.848 16.7479 111.232 14.2336 112 11.9104C112.798 9.58725 113.979 7.71997 115.544 6.30841C117.139 4.89687 119.059 4.1911 121.303 4.1911C123.194 4.1911 124.7 4.77924 125.822 5.95552C126.945 7.10239 127.697 8.49922 128.081 10.146C128.406 8.52862 129.13 7.1318 130.252 5.95552C131.404 4.77924 132.91 4.1911 134.771 4.1911C136.986 4.1911 138.876 4.88216 140.441 6.26429C142.036 7.617 143.247 9.51375 144.074 11.9545C144.93 14.3953 145.358 17.2184 145.358 20.4238C145.358 22.5116 145.063 24.673 144.473 26.908C143.882 29.1135 143.055 30.9514 141.992 32.4218C140.928 33.8921 139.718 34.6273 138.359 34.6273C137.119 34.6273 136.174 34.3186 135.524 33.701C134.874 33.0835 134.549 32.0689 134.549 30.6574C134.549 30.0104 134.667 28.8047 134.904 27.0403C135.14 25.1583 135.258 23.8056 135.258 22.9822C135.258 21.0707 134.741 20.115 133.707 20.115C133.176 20.115 132.837 20.5414 132.689 21.3942C132.571 22.247 132.497 23.6291 132.467 25.5406C132.467 26.9815 132.438 28.1872 132.378 29.1576C132.32 30.0986 132.187 30.9661 131.98 31.7602C131.744 32.6129 131.271 33.304 130.563 33.8333C129.883 34.3627 129.026 34.6273 127.993 34.6273Z" fill="white"/>
<path d="M127.993 34.6273C126.989 34.6273 126.147 34.3774 125.468 33.8774C124.818 33.3481 124.36 32.6424 124.094 31.7602C123.858 30.9367 123.71 30.0398 123.651 29.0694C123.622 28.099 123.607 26.7316 123.607 24.9671C123.607 23.3203 123.533 22.0999 123.386 21.306C123.267 20.512 122.958 20.115 122.455 20.115C121.865 20.115 121.451 20.3797 121.215 20.9089C120.979 21.4089 120.86 22.1293 120.86 23.0704C120.86 23.9232 120.979 25.2612 121.215 27.0844C121.244 27.4373 121.303 27.9961 121.392 28.7606C121.481 29.5252 121.525 30.1575 121.525 30.6574C121.525 32.0689 121.2 33.0688 120.551 33.6569C119.93 34.2451 119.014 34.5391 117.803 34.5391C116.357 34.5391 115.101 33.7598 114.038 32.2012C112.975 30.6427 112.177 28.7018 111.646 26.3787C111.114 24.0261 110.848 21.7177 110.848 19.4533C110.848 16.7479 111.232 14.2336 112 11.9104C112.798 9.58725 113.979 7.71997 115.544 6.30841C117.139 4.89687 119.059 4.1911 121.303 4.1911C123.194 4.1911 124.7 4.77924 125.822 5.95552C126.945 7.10239 127.697 8.49922 128.081 10.146C128.406 8.52862 129.13 7.1318 130.252 5.95552C131.404 4.77924 132.91 4.1911 134.771 4.1911C136.986 4.1911 138.876 4.88216 140.441 6.26429C142.036 7.617 143.247 9.51375 144.074 11.9545C144.93 14.3953 145.358 17.2184 145.358 20.4238C145.358 22.5116 145.063 24.673 144.473 26.908C143.882 29.1135 143.055 30.9514 141.992 32.4218C140.928 33.8921 139.718 34.6273 138.359 34.6273C137.119 34.6273 136.174 34.3186 135.524 33.701C134.874 33.0835 134.549 32.0689 134.549 30.6574C134.549 30.0104 134.667 28.8047 134.904 27.0403C135.14 25.1583 135.258 23.8056 135.258 22.9822C135.258 21.0707 134.741 20.115 133.707 20.115C133.176 20.115 132.837 20.5414 132.689 21.3942C132.571 22.247 132.497 23.6291 132.467 25.5406C132.467 26.9815 132.438 28.1872 132.378 29.1576C132.32 30.0986 132.187 30.9661 131.98 31.7602C131.744 32.6129 131.271 33.304 130.563 33.8333C129.883 34.3627 129.026 34.6273 127.993 34.6273Z" fill="white"/>
<path d="M127.993 34.6273C126.989 34.6273 126.147 34.3774 125.468 33.8774C124.818 33.3481 124.36 32.6424 124.094 31.7602C123.858 30.9367 123.71 30.0398 123.651 29.0694C123.622 28.099 123.607 26.7316 123.607 24.9671C123.607 23.3203 123.533 22.0999 123.386 21.306C123.267 20.512 122.958 20.115 122.455 20.115C121.865 20.115 121.451 20.3797 121.215 20.9089C120.979 21.4089 120.86 22.1293 120.86 23.0704C120.86 23.9232 120.979 25.2612 121.215 27.0844C121.244 27.4373 121.303 27.9961 121.392 28.7606C121.481 29.5252 121.525 30.1575 121.525 30.6574C121.525 32.0689 121.2 33.0688 120.551 33.6569C119.93 34.2451 119.014 34.5391 117.803 34.5391C116.357 34.5391 115.101 33.7598 114.038 32.2012C112.975 30.6427 112.177 28.7018 111.646 26.3787C111.114 24.0261 110.848 21.7177 110.848 19.4533C110.848 16.7479 111.232 14.2336 112 11.9104C112.798 9.58725 113.979 7.71997 115.544 6.30841C117.139 4.89687 119.059 4.1911 121.303 4.1911C123.194 4.1911 124.7 4.77924 125.822 5.95552C126.945 7.10239 127.697 8.49922 128.081 10.146C128.406 8.52862 129.13 7.1318 130.252 5.95552C131.404 4.77924 132.91 4.1911 134.771 4.1911C136.986 4.1911 138.876 4.88216 140.441 6.26429C142.036 7.617 143.247 9.51375 144.074 11.9545C144.93 14.3953 145.358 17.2184 145.358 20.4238C145.358 22.5116 145.063 24.673 144.473 26.908C143.882 29.1135 143.055 30.9514 141.992 32.4218C140.928 33.8921 139.718 34.6273 138.359 34.6273C137.119 34.6273 136.174 34.3186 135.524 33.701C134.874 33.0835 134.549 32.0689 134.549 30.6574C134.549 30.0104 134.667 28.8047 134.904 27.0403C135.14 25.1583 135.258 23.8056 135.258 22.9822C135.258 21.0707 134.741 20.115 133.707 20.115C133.176 20.115 132.837 20.5414 132.689 21.3942C132.571 22.247 132.497 23.6291 132.467 25.5406C132.467 26.9815 132.438 28.1872 132.378 29.1576C132.32 30.0986 132.187 30.9661 131.98 31.7602C131.744 32.6129 131.271 33.304 130.563 33.8333C129.883 34.3627 129.026 34.6273 127.993 34.6273Z" fill="white"/>
<path d="M127.993 34.6273C126.989 34.6273 126.147 34.3774 125.468 33.8774C124.818 33.3481 124.36 32.6424 124.094 31.7602C123.858 30.9367 123.71 30.0398 123.651 29.0694C123.622 28.099 123.607 26.7316 123.607 24.9671C123.607 23.3203 123.533 22.0999 123.386 21.306C123.267 20.512 122.958 20.115 122.455 20.115C121.865 20.115 121.451 20.3797 121.215 20.9089C120.979 21.4089 120.86 22.1293 120.86 23.0704C120.86 23.9232 120.979 25.2612 121.215 27.0844C121.244 27.4373 121.303 27.9961 121.392 28.7606C121.481 29.5252 121.525 30.1575 121.525 30.6574C121.525 32.0689 121.2 33.0688 120.551 33.6569C119.93 34.2451 119.014 34.5391 117.803 34.5391C116.357 34.5391 115.101 33.7598 114.038 32.2012C112.975 30.6427 112.177 28.7018 111.646 26.3787C111.114 24.0261 110.848 21.7177 110.848 19.4533C110.848 16.7479 111.232 14.2336 112 11.9104C112.798 9.58725 113.979 7.71997 115.544 6.30841C117.139 4.89687 119.059 4.1911 121.303 4.1911C123.194 4.1911 124.7 4.77924 125.822 5.95552C126.945 7.10239 127.697 8.49922 128.081 10.146C128.406 8.52862 129.13 7.1318 130.252 5.95552C131.404 4.77924 132.91 4.1911 134.771 4.1911C136.986 4.1911 138.876 4.88216 140.441 6.26429C142.036 7.617 143.247 9.51375 144.074 11.9545C144.93 14.3953 145.358 17.2184 145.358 20.4238C145.358 22.5116 145.063 24.673 144.473 26.908C143.882 29.1135 143.055 30.9514 141.992 32.4218C140.928 33.8921 139.718 34.6273 138.359 34.6273C137.119 34.6273 136.174 34.3186 135.524 33.701C134.874 33.0835 134.549 32.0689 134.549 30.6574C134.549 30.0104 134.667 28.8047 134.904 27.0403C135.14 25.1583 135.258 23.8056 135.258 22.9822C135.258 21.0707 134.741 20.115 133.707 20.115C133.176 20.115 132.837 20.5414 132.689 21.3942C132.571 22.247 132.497 23.6291 132.467 25.5406C132.467 26.9815 132.438 28.1872 132.378 29.1576C132.32 30.0986 132.187 30.9661 131.98 31.7602C131.744 32.6129 131.271 33.304 130.563 33.8333C129.883 34.3627 129.026 34.6273 127.993 34.6273Z" fill="white"/>
<path d="M105.701 27.5696C107.118 28.0108 107.828 28.9371 107.828 30.3486C107.828 31.6719 107.148 32.7159 105.789 33.4805C104.431 34.2451 102.083 34.6274 98.7458 34.6274C94.5816 34.6274 91.008 33.6275 88.0255 31.6278C85.0716 29.6282 83.5954 25.6582 83.5954 19.718C83.5954 16.7185 84.1123 14.013 85.146 11.6017C86.1797 9.19028 87.7153 7.27883 89.7526 5.8673C91.8201 4.45577 94.3457 3.74999 97.3282 3.74999C101.315 3.74999 104.121 4.36754 105.745 5.60264C107.369 6.80832 108.182 8.29335 108.182 10.0578C108.182 10.8812 107.975 11.6458 107.562 12.3515C107.148 13.0279 106.528 13.5572 105.701 13.9395C104.992 14.2924 104.077 14.4689 102.954 14.4689L101.758 14.4248C101.522 14.3954 101.182 14.3807 100.74 14.3807C99.2033 14.3807 97.993 14.66 97.1066 15.2187C96.2208 15.7481 95.6153 16.5715 95.2908 17.6889C96.5311 17.6301 97.6535 17.6007 98.6571 17.6007C101.64 17.6007 103.575 17.6889 104.46 17.8654C105.465 18.0712 106.233 18.4682 106.765 19.0563C107.326 19.6445 107.606 20.3355 107.606 21.1295C107.606 21.9236 107.34 22.6146 106.809 23.2028C106.277 23.7614 105.479 24.1438 104.416 24.3496C103.589 24.5261 101.581 24.6143 98.3912 24.6143C97.0923 24.6143 96.1765 24.5996 95.6446 24.5702C96.5604 26.511 98.2732 27.4814 100.784 27.4814C100.931 27.4814 101.271 27.452 101.803 27.3932C102.512 27.3344 103.117 27.305 103.619 27.305C104.476 27.305 105.17 27.3932 105.701 27.5696Z" fill="white"/>
<path d="M105.701 27.5696C107.118 28.0108 107.828 28.9371 107.828 30.3486C107.828 31.6719 107.148 32.7159 105.789 33.4805C104.431 34.2451 102.083 34.6274 98.7458 34.6274C94.5816 34.6274 91.008 33.6275 88.0255 31.6278C85.0716 29.6282 83.5954 25.6582 83.5954 19.718C83.5954 16.7185 84.1123 14.013 85.146 11.6017C86.1797 9.19028 87.7153 7.27883 89.7526 5.8673C91.8201 4.45577 94.3457 3.74999 97.3282 3.74999C101.315 3.74999 104.121 4.36754 105.745 5.60264C107.369 6.80832 108.182 8.29335 108.182 10.0578C108.182 10.8812 107.975 11.6458 107.562 12.3515C107.148 13.0279 106.528 13.5572 105.701 13.9395C104.992 14.2924 104.077 14.4689 102.954 14.4689L101.758 14.4248C101.522 14.3954 101.182 14.3807 100.74 14.3807C99.2033 14.3807 97.993 14.66 97.1066 15.2187C96.2208 15.7481 95.6153 16.5715 95.2908 17.6889C96.5311 17.6301 97.6535 17.6007 98.6571 17.6007C101.64 17.6007 103.575 17.6889 104.46 17.8654C105.465 18.0712 106.233 18.4682 106.765 19.0563C107.326 19.6445 107.606 20.3355 107.606 21.1295C107.606 21.9236 107.34 22.6146 106.809 23.2028C106.277 23.7614 105.479 24.1438 104.416 24.3496C103.589 24.5261 101.581 24.6143 98.3912 24.6143C97.0923 24.6143 96.1765 24.5996 95.6446 24.5702C96.5604 26.511 98.2732 27.4814 100.784 27.4814C100.931 27.4814 101.271 27.452 101.803 27.3932C102.512 27.3344 103.117 27.305 103.619 27.305C104.476 27.305 105.17 27.3932 105.701 27.5696Z" fill="white"/>
<path d="M105.701 27.5696C107.118 28.0108 107.828 28.9371 107.828 30.3486C107.828 31.6719 107.148 32.7159 105.789 33.4805C104.431 34.2451 102.083 34.6274 98.7458 34.6274C94.5816 34.6274 91.008 33.6275 88.0255 31.6278C85.0716 29.6282 83.5954 25.6582 83.5954 19.718C83.5954 16.7185 84.1123 14.013 85.146 11.6017C86.1797 9.19028 87.7153 7.27883 89.7526 5.8673C91.8201 4.45577 94.3457 3.74999 97.3282 3.74999C101.315 3.74999 104.121 4.36754 105.745 5.60264C107.369 6.80832 108.182 8.29335 108.182 10.0578C108.182 10.8812 107.975 11.6458 107.562 12.3515C107.148 13.0279 106.528 13.5572 105.701 13.9395C104.992 14.2924 104.077 14.4689 102.954 14.4689L101.758 14.4248C101.522 14.3954 101.182 14.3807 100.74 14.3807C99.2033 14.3807 97.993 14.66 97.1066 15.2187C96.2208 15.7481 95.6153 16.5715 95.2908 17.6889C96.5311 17.6301 97.6535 17.6007 98.6571 17.6007C101.64 17.6007 103.575 17.6889 104.46 17.8654C105.465 18.0712 106.233 18.4682 106.765 19.0563C107.326 19.6445 107.606 20.3355 107.606 21.1295C107.606 21.9236 107.34 22.6146 106.809 23.2028C106.277 23.7614 105.479 24.1438 104.416 24.3496C103.589 24.5261 101.581 24.6143 98.3912 24.6143C97.0923 24.6143 96.1765 24.5996 95.6446 24.5702C96.5604 26.511 98.2732 27.4814 100.784 27.4814C100.931 27.4814 101.271 27.452 101.803 27.3932C102.512 27.3344 103.117 27.305 103.619 27.305C104.476 27.305 105.17 27.3932 105.701 27.5696Z" fill="white"/>
<path d="M105.701 27.5696C107.118 28.0108 107.828 28.9371 107.828 30.3486C107.828 31.6719 107.148 32.7159 105.789 33.4805C104.431 34.2451 102.083 34.6274 98.7458 34.6274C94.5816 34.6274 91.008 33.6275 88.0255 31.6278C85.0716 29.6282 83.5954 25.6582 83.5954 19.718C83.5954 16.7185 84.1123 14.013 85.146 11.6017C86.1797 9.19028 87.7153 7.27883 89.7526 5.8673C91.8201 4.45577 94.3457 3.74999 97.3282 3.74999C101.315 3.74999 104.121 4.36754 105.745 5.60264C107.369 6.80832 108.182 8.29335 108.182 10.0578C108.182 10.8812 107.975 11.6458 107.562 12.3515C107.148 13.0279 106.528 13.5572 105.701 13.9395C104.992 14.2924 104.077 14.4689 102.954 14.4689L101.758 14.4248C101.522 14.3954 101.182 14.3807 100.74 14.3807C99.2033 14.3807 97.993 14.66 97.1066 15.2187C96.2208 15.7481 95.6153 16.5715 95.2908 17.6889C96.5311 17.6301 97.6535 17.6007 98.6571 17.6007C101.64 17.6007 103.575 17.6889 104.46 17.8654C105.465 18.0712 106.233 18.4682 106.765 19.0563C107.326 19.6445 107.606 20.3355 107.606 21.1295C107.606 21.9236 107.34 22.6146 106.809 23.2028C106.277 23.7614 105.479 24.1438 104.416 24.3496C103.589 24.5261 101.581 24.6143 98.3912 24.6143C97.0923 24.6143 96.1765 24.5996 95.6446 24.5702C96.5604 26.511 98.2732 27.4814 100.784 27.4814C100.931 27.4814 101.271 27.452 101.803 27.3932C102.512 27.3344 103.117 27.305 103.619 27.305C104.476 27.305 105.17 27.3932 105.701 27.5696Z" fill="white"/>
<path d="M67.5873 34.5833C62.6847 34.5539 59.0078 33.3482 56.5566 30.9662C54.1348 28.5842 52.9239 24.7172 52.9239 19.3652C52.9239 14.513 54.1052 10.7048 56.4679 7.94048C58.8306 5.14685 62.1679 3.75002 66.4798 3.75002C69.1378 3.75002 71.4562 4.14701 73.4349 4.94099C75.4135 5.73499 76.9348 6.86715 77.9978 8.33753C79.0608 9.80783 79.5927 11.5429 79.5927 13.5425C79.5927 15.1305 79.2381 16.5421 78.5296 17.7772C77.8505 19.0123 76.8311 20.115 75.4728 21.0854C76.5651 21.2619 77.5102 21.8501 78.308 22.8499C79.1352 23.8497 79.5483 25.0113 79.5483 26.3346C79.5483 27.7461 79.1645 29.0841 78.3967 30.3486C77.6582 31.5837 76.3886 32.5983 74.5868 33.3923C72.8147 34.1863 70.4816 34.5833 67.5873 34.5833ZM64.5305 18.1301C65.0622 18.3947 65.7267 18.527 66.5241 18.527C67.4692 18.527 68.2814 18.3065 68.9606 17.8654C69.6694 17.3948 70.0238 16.7038 70.0238 15.7922C70.0238 14.91 69.6694 14.2483 68.9606 13.8072C68.2814 13.3367 67.4544 13.1015 66.4798 13.1015C65.712 13.1015 65.0622 13.2338 64.5305 13.4984C64.1171 13.6749 63.807 13.9837 63.6003 14.4248C63.3935 14.8658 63.2902 15.3364 63.2902 15.8363C63.2902 16.3362 63.3935 16.8068 63.6003 17.2478C63.807 17.6595 64.1171 17.9536 64.5305 18.1301ZM64.5305 28.4519C65.0917 28.6871 65.7562 28.8048 66.5241 28.8048C67.4692 28.8048 68.2814 28.6136 68.9606 28.2314C69.6694 27.8196 70.0238 27.2168 70.0238 26.4228C70.0238 25.6583 69.6694 25.0701 68.9606 24.6584C68.2518 24.2467 67.4249 24.0408 66.4798 24.0408C65.7415 24.0408 65.0917 24.1585 64.5305 24.3938C64.1171 24.5702 63.807 24.8495 63.6003 25.2318C63.3935 25.5847 63.2902 25.9817 63.2902 26.4228C63.2902 26.8639 63.3935 27.2756 63.6003 27.6579C63.807 28.0108 64.1171 28.2755 64.5305 28.4519Z" fill="white"/>
<path d="M67.5873 34.5833C62.6847 34.5539 59.0078 33.3482 56.5566 30.9662C54.1348 28.5842 52.9239 24.7172 52.9239 19.3652C52.9239 14.513 54.1052 10.7048 56.4679 7.94048C58.8306 5.14685 62.1679 3.75002 66.4798 3.75002C69.1378 3.75002 71.4562 4.14701 73.4349 4.94099C75.4135 5.73499 76.9348 6.86715 77.9978 8.33753C79.0608 9.80783 79.5927 11.5429 79.5927 13.5425C79.5927 15.1305 79.2381 16.5421 78.5296 17.7772C77.8505 19.0123 76.8311 20.115 75.4728 21.0854C76.5651 21.2619 77.5102 21.8501 78.308 22.8499C79.1352 23.8497 79.5483 25.0113 79.5483 26.3346C79.5483 27.7461 79.1645 29.0841 78.3967 30.3486C77.6582 31.5837 76.3886 32.5983 74.5868 33.3923C72.8147 34.1863 70.4816 34.5833 67.5873 34.5833ZM64.5305 18.1301C65.0622 18.3947 65.7267 18.527 66.5241 18.527C67.4692 18.527 68.2814 18.3065 68.9606 17.8654C69.6694 17.3948 70.0238 16.7038 70.0238 15.7922C70.0238 14.91 69.6694 14.2483 68.9606 13.8072C68.2814 13.3367 67.4544 13.1015 66.4798 13.1015C65.712 13.1015 65.0622 13.2338 64.5305 13.4984C64.1171 13.6749 63.807 13.9837 63.6003 14.4248C63.3935 14.8658 63.2902 15.3364 63.2902 15.8363C63.2902 16.3362 63.3935 16.8068 63.6003 17.2478C63.807 17.6595 64.1171 17.9536 64.5305 18.1301ZM64.5305 28.4519C65.0917 28.6871 65.7562 28.8048 66.5241 28.8048C67.4692 28.8048 68.2814 28.6136 68.9606 28.2314C69.6694 27.8196 70.0238 27.2168 70.0238 26.4228C70.0238 25.6583 69.6694 25.0701 68.9606 24.6584C68.2518 24.2467 67.4249 24.0408 66.4798 24.0408C65.7415 24.0408 65.0917 24.1585 64.5305 24.3938C64.1171 24.5702 63.807 24.8495 63.6003 25.2318C63.3935 25.5847 63.2902 25.9817 63.2902 26.4228C63.2902 26.8639 63.3935 27.2756 63.6003 27.6579C63.807 28.0108 64.1171 28.2755 64.5305 28.4519Z" fill="white"/>
<path d="M67.5873 34.5833C62.6847 34.5539 59.0078 33.3482 56.5566 30.9662C54.1348 28.5842 52.9239 24.7172 52.9239 19.3652C52.9239 14.513 54.1052 10.7048 56.4679 7.94048C58.8306 5.14685 62.1679 3.75002 66.4798 3.75002C69.1378 3.75002 71.4562 4.14701 73.4349 4.94099C75.4135 5.73499 76.9348 6.86715 77.9978 8.33753C79.0608 9.80783 79.5927 11.5429 79.5927 13.5425C79.5927 15.1305 79.2381 16.5421 78.5296 17.7772C77.8505 19.0123 76.8311 20.115 75.4728 21.0854C76.5651 21.2619 77.5102 21.8501 78.308 22.8499C79.1352 23.8497 79.5483 25.0113 79.5483 26.3346C79.5483 27.7461 79.1645 29.0841 78.3967 30.3486C77.6582 31.5837 76.3886 32.5983 74.5868 33.3923C72.8147 34.1863 70.4816 34.5833 67.5873 34.5833ZM64.5305 18.1301C65.0622 18.3947 65.7267 18.527 66.5241 18.527C67.4692 18.527 68.2814 18.3065 68.9606 17.8654C69.6694 17.3948 70.0238 16.7038 70.0238 15.7922C70.0238 14.91 69.6694 14.2483 68.9606 13.8072C68.2814 13.3367 67.4544 13.1015 66.4798 13.1015C65.712 13.1015 65.0622 13.2338 64.5305 13.4984C64.1171 13.6749 63.807 13.9837 63.6003 14.4248C63.3935 14.8658 63.2902 15.3364 63.2902 15.8363C63.2902 16.3362 63.3935 16.8068 63.6003 17.2478C63.807 17.6595 64.1171 17.9536 64.5305 18.1301ZM64.5305 28.4519C65.0917 28.6871 65.7562 28.8048 66.5241 28.8048C67.4692 28.8048 68.2814 28.6136 68.9606 28.2314C69.6694 27.8196 70.0238 27.2168 70.0238 26.4228C70.0238 25.6583 69.6694 25.0701 68.9606 24.6584C68.2518 24.2467 67.4249 24.0408 66.4798 24.0408C65.7415 24.0408 65.0917 24.1585 64.5305 24.3938C64.1171 24.5702 63.807 24.8495 63.6003 25.2318C63.3935 25.5847 63.2902 25.9817 63.2902 26.4228C63.2902 26.8639 63.3935 27.2756 63.6003 27.6579C63.807 28.0108 64.1171 28.2755 64.5305 28.4519Z" fill="white"/>
<path d="M67.5873 34.5833C62.6847 34.5539 59.0078 33.3482 56.5566 30.9662C54.1348 28.5842 52.9239 24.7172 52.9239 19.3652C52.9239 14.513 54.1052 10.7048 56.4679 7.94048C58.8306 5.14685 62.1679 3.75002 66.4798 3.75002C69.1378 3.75002 71.4562 4.14701 73.4349 4.94099C75.4135 5.73499 76.9348 6.86715 77.9978 8.33753C79.0608 9.80783 79.5927 11.5429 79.5927 13.5425C79.5927 15.1305 79.2381 16.5421 78.5296 17.7772C77.8505 19.0123 76.8311 20.115 75.4728 21.0854C76.5651 21.2619 77.5102 21.8501 78.308 22.8499C79.1352 23.8497 79.5483 25.0113 79.5483 26.3346C79.5483 27.7461 79.1645 29.0841 78.3967 30.3486C77.6582 31.5837 76.3886 32.5983 74.5868 33.3923C72.8147 34.1863 70.4816 34.5833 67.5873 34.5833ZM64.5305 18.1301C65.0622 18.3947 65.7267 18.527 66.5241 18.527C67.4692 18.527 68.2814 18.3065 68.9606 17.8654C69.6694 17.3948 70.0238 16.7038 70.0238 15.7922C70.0238 14.91 69.6694 14.2483 68.9606 13.8072C68.2814 13.3367 67.4544 13.1015 66.4798 13.1015C65.712 13.1015 65.0622 13.2338 64.5305 13.4984C64.1171 13.6749 63.807 13.9837 63.6003 14.4248C63.3935 14.8658 63.2902 15.3364 63.2902 15.8363C63.2902 16.3362 63.3935 16.8068 63.6003 17.2478C63.807 17.6595 64.1171 17.9536 64.5305 18.1301ZM64.5305 28.4519C65.0917 28.6871 65.7562 28.8048 66.5241 28.8048C67.4692 28.8048 68.2814 28.6136 68.9606 28.2314C69.6694 27.8196 70.0238 27.2168 70.0238 26.4228C70.0238 25.6583 69.6694 25.0701 68.9606 24.6584C68.2518 24.2467 67.4249 24.0408 66.4798 24.0408C65.7415 24.0408 65.0917 24.1585 64.5305 24.3938C64.1171 24.5702 63.807 24.8495 63.6003 25.2318C63.3935 25.5847 63.2902 25.9817 63.2902 26.4228C63.2902 26.8639 63.3935 27.2756 63.6003 27.6579C63.807 28.0108 64.1171 28.2755 64.5305 28.4519Z" fill="white"/>
<path d="M53.2612 45.8773H50.6709V41.3773H53.0087C53.4415 41.3773 53.75 41.4613 53.9343 41.6293C54.1186 41.7973 54.2107 42.0413 54.2107 42.3613C54.2107 42.6853 54.1527 42.9353 54.0364 43.1113C53.9203 43.2833 53.762 43.3973 53.5617 43.4533V43.4953C54.1427 43.5953 54.4331 43.9913 54.4331 44.6833C54.4331 45.0433 54.3369 45.3334 54.1446 45.5533C53.9564 45.7693 53.6619 45.8773 53.2612 45.8773ZM52.6782 44.0833H52.1133V44.8213H52.6662C52.8705 44.8213 52.9727 44.6974 52.9727 44.4493C52.9727 44.2054 52.8746 44.0833 52.6782 44.0833ZM52.57 42.3613H52.1133V43.0333H52.558C52.7423 43.0333 52.8344 42.9214 52.8344 42.6973C52.8344 42.4733 52.7463 42.3613 52.57 42.3613ZM54.9377 45.8773V42.2773H55.6589L56.0556 42.6793C56.344 42.4153 56.7006 42.2453 57.1253 42.1693L57.2095 43.5313C57.1534 43.5313 57.0853 43.5394 57.0051 43.5553C56.925 43.5713 56.8429 43.5913 56.7587 43.6153C56.6786 43.6393 56.6045 43.6693 56.5363 43.7053C56.4683 43.7374 56.4161 43.7753 56.3801 43.8193V45.8773H54.9377ZM59.3502 42.1693C60.5041 42.1693 61.0811 42.5653 61.0811 43.3573V45.8773H60.3599L59.9512 45.4693C59.8791 45.5494 59.7929 45.6214 59.6928 45.6853C59.5966 45.7493 59.4924 45.8033 59.3803 45.8473C59.2681 45.8914 59.1539 45.9253 59.0377 45.9493C58.9215 45.9733 58.8093 45.9853 58.7011 45.9853C58.4968 45.9853 58.3125 45.9634 58.1482 45.9193C57.988 45.8794 57.8517 45.8134 57.7395 45.7213C57.6274 45.6293 57.5412 45.5074 57.4811 45.3553C57.421 45.2033 57.391 45.0173 57.391 44.7973C57.391 43.9333 58.044 43.5013 59.3502 43.5013H59.6387V43.2433C59.5626 43.2394 59.4924 43.2353 59.4283 43.2313C59.3682 43.2274 59.3121 43.2253 59.2601 43.2253C58.7192 43.2253 58.2524 43.2913 57.8597 43.4233L57.6855 42.3913C58.1662 42.2434 58.7212 42.1693 59.3502 42.1693ZM58.8454 44.6413V44.9353H59.1459C59.3542 44.9353 59.4905 44.9113 59.5545 44.8633C59.6107 44.8114 59.6387 44.7493 59.6387 44.6773V44.3353H59.3442C59.1719 44.3353 59.0457 44.3533 58.9656 44.3893C58.8854 44.4253 58.8454 44.5093 58.8454 44.6413ZM61.548 45.8773V45.1573L62.9603 43.3993L62.9423 43.3573H61.8004L61.6922 42.2773H64.9676V42.9973L63.5733 44.7553L63.5974 44.7973H65.0097V45.8773H61.548ZM66.9914 45.8773H65.549V42.4573L66.9914 42.2773V45.8773ZM65.4709 41.5993C65.4709 41.4913 65.4829 41.4013 65.507 41.3293C65.531 41.2534 65.5731 41.1934 65.6332 41.1493C65.6933 41.1013 65.7754 41.0674 65.8796 41.0473C65.9838 41.0273 66.116 41.0173 66.2762 41.0173C66.4365 41.0173 66.5667 41.0273 66.6669 41.0473C66.7711 41.0674 66.8532 41.1013 66.9133 41.1493C66.9734 41.1934 67.0154 41.2534 67.0395 41.3293C67.0635 41.4013 67.0755 41.4913 67.0755 41.5993C67.0755 41.7073 67.0635 41.7973 67.0395 41.8693C67.0154 41.9413 66.9734 42.0013 66.9133 42.0493C66.8532 42.0934 66.7711 42.1253 66.6669 42.1453C66.5667 42.1613 66.4365 42.1693 66.2762 42.1693C66.1601 42.1693 66.0519 42.1654 65.9517 42.1573C65.8555 42.1493 65.7714 42.1273 65.6993 42.0913C65.6272 42.0514 65.5711 41.9933 65.531 41.9173C65.4909 41.8414 65.4709 41.7353 65.4709 41.5993ZM67.7147 41.1973L69.1571 41.0893V44.8453C69.2333 44.8613 69.3013 44.8733 69.3614 44.8813C69.4215 44.8894 69.4716 44.8954 69.5117 44.8993L69.4456 45.9553C68.8326 45.9553 68.4259 45.9193 68.2256 45.8473C68.0573 45.7873 67.9291 45.7093 67.8409 45.6133C67.7568 45.5173 67.7147 45.3793 67.7147 45.1993V41.1973ZM71.3874 45.8773H69.945V42.4573L71.3874 42.2773V45.8773ZM69.8669 41.5993C69.8669 41.4913 69.8789 41.4013 69.9029 41.3293C69.927 41.2534 69.969 41.1934 70.0291 41.1493C70.0892 41.1013 70.1714 41.0674 70.2755 41.0473C70.3797 41.0273 70.512 41.0173 70.6722 41.0173C70.8324 41.0173 70.9627 41.0273 71.0628 41.0473C71.167 41.0674 71.2492 41.1013 71.3093 41.1493C71.3694 41.1934 71.4114 41.2534 71.4355 41.3293C71.4595 41.4013 71.4715 41.4913 71.4715 41.5993C71.4715 41.7073 71.4595 41.7973 71.4355 41.8693C71.4114 41.9413 71.3694 42.0013 71.3093 42.0493C71.2492 42.0934 71.167 42.1253 71.0628 42.1453C70.9627 42.1613 70.8324 42.1693 70.6722 42.1693C70.556 42.1693 70.4478 42.1654 70.3477 42.1573C70.2515 42.1493 70.1674 42.1273 70.0952 42.0913C70.0231 42.0514 69.967 41.9933 69.927 41.9173C69.8869 41.8414 69.8669 41.7353 69.8669 41.5993ZM73.8175 42.1693C74.9714 42.1693 75.5482 42.5653 75.5482 43.3573V45.8773H74.8272L74.4185 45.4693C74.3464 45.5494 74.2602 45.6214 74.1601 45.6853C74.0639 45.7493 73.9597 45.8033 73.8476 45.8473C73.7354 45.8914 73.6212 45.9253 73.505 45.9493C73.3888 45.9733 73.2766 45.9853 73.1684 45.9853C72.9641 45.9853 72.7798 45.9634 72.6155 45.9193C72.4553 45.8794 72.319 45.8134 72.2068 45.7213C72.0947 45.6293 72.0085 45.5074 71.9484 45.3553C71.8883 45.2033 71.8583 45.0173 71.8583 44.7973C71.8583 43.9333 72.5113 43.5013 73.8175 43.5013H74.106V43.2433C74.0299 43.2394 73.9597 43.2353 73.8956 43.2313C73.8355 43.2274 73.7794 43.2253 73.7274 43.2253C73.1865 43.2253 72.7197 43.2913 72.327 43.4233L72.1528 42.3913C72.6335 42.2434 73.1885 42.1693 73.8175 42.1693ZM73.3127 44.6413V44.9353H73.6132C73.8215 44.9353 73.9578 44.9113 74.0219 44.8633C74.078 44.8114 74.106 44.7493 74.106 44.6773V44.3353H73.8115C73.6392 44.3353 73.513 44.3533 73.4329 44.3893C73.3527 44.4253 73.3127 44.5093 73.3127 44.6413ZM78.2151 45.8773V43.3573H78.1129C78.0483 43.3573 77.9867 43.3594 77.9266 43.3633C77.8702 43.3673 77.8199 43.3813 77.7763 43.4053C77.732 43.4254 77.6982 43.4573 77.6742 43.5013C77.6501 43.5454 77.6381 43.6073 77.6381 43.6873V45.8773H76.1957V42.2773H76.9169L77.2415 42.6073C77.5337 42.3154 77.9183 42.1693 78.3954 42.1693C78.8679 42.1693 79.2127 42.2674 79.4291 42.4633C79.7296 42.2674 80.0699 42.1693 80.4508 42.1693C80.8392 42.1693 81.1397 42.2434 81.3523 42.3913C81.5686 42.5353 81.6768 42.7373 81.6768 42.9973V45.8773H80.2344V43.3573H80.1322C80.0759 43.3573 80.0196 43.3594 79.964 43.3633C79.9076 43.3673 79.8573 43.3793 79.8137 43.3993C79.7731 43.4153 79.7371 43.4434 79.7055 43.4833C79.677 43.5233 79.6612 43.5773 79.6575 43.6453V45.8773H78.2151ZM87.0444 43.1353V44.1793H85.602V44.7253H87.369V45.8773H84.1597V41.3773H87.3329L87.1526 42.5293H85.602V43.1353H87.0444ZM91.5504 41.0893V45.8773H90.8292L90.5167 45.5773C90.3123 45.8494 89.936 45.9853 89.3868 45.9853C89.0983 45.9853 88.8564 45.9334 88.6596 45.8293C88.4635 45.7253 88.3035 45.5873 88.1788 45.4153C88.0586 45.2393 87.9707 45.0353 87.9144 44.8033C87.8625 44.5714 87.8362 44.3293 87.8362 44.0773C87.8362 43.8373 87.8603 43.6093 87.9084 43.3933C87.9564 43.1734 88.0368 42.9814 88.1488 42.8173C88.2614 42.6533 88.4094 42.5233 88.5935 42.4273C88.7783 42.3274 89.0067 42.2773 89.2786 42.2773H90.108V41.1973L91.5504 41.0893ZM89.3868 43.5253V44.9353H89.6092C89.7737 44.9353 89.8939 44.9213 89.9698 44.8933C90.0502 44.8613 90.096 44.7893 90.108 44.6773V43.2193H89.8856C89.7098 43.2193 89.5814 43.2373 89.501 43.2733C89.4251 43.3093 89.3868 43.3933 89.3868 43.5253ZM93.7132 45.8773H92.2708V42.4573L93.7132 42.2773V45.8773ZM92.1927 41.5993C92.1927 41.4913 92.2047 41.4013 92.2288 41.3293C92.2528 41.2534 92.2949 41.1934 92.355 41.1493C92.4151 41.1013 92.4977 41.0674 92.6014 41.0473C92.7058 41.0273 92.838 41.0173 92.998 41.0173C93.1588 41.0173 93.2888 41.0273 93.3887 41.0473C93.4931 41.0674 93.575 41.1013 93.6351 41.1493C93.6952 41.1934 93.7373 41.2534 93.7613 41.3293C93.7853 41.4013 93.7974 41.4913 93.7974 41.5993C93.7974 41.7073 93.7853 41.7973 93.7613 41.8693C93.7373 41.9413 93.6952 42.0013 93.6351 42.0493C93.575 42.0934 93.4931 42.1253 93.3887 42.1453C93.2888 42.1613 93.1588 42.1693 92.998 42.1693C92.8823 42.1693 92.7742 42.1654 92.6735 42.1573C92.5773 42.1493 92.4932 42.1273 92.4211 42.0913C92.349 42.0514 92.2934 41.9933 92.2528 41.9173C92.213 41.8414 92.1927 41.7353 92.1927 41.5993ZM94.4367 45.6973V41.1973L95.8791 41.0893V42.2833C96.0556 42.2074 96.296 42.1693 96.6003 42.1693C96.8887 42.1693 97.1314 42.2213 97.3274 42.3253C97.5235 42.4294 97.682 42.5693 97.8022 42.7453C97.9262 42.9173 98.0148 43.1194 98.0667 43.3513C98.123 43.5833 98.1508 43.8253 98.1508 44.0773C98.1508 44.7533 97.9946 45.2413 97.682 45.5413C97.3695 45.8374 96.897 45.9853 96.2637 45.9853C95.6304 45.9853 95.0219 45.8893 94.4367 45.6973ZM95.8791 43.4893V44.9353H96.1014C96.278 44.9353 96.4042 44.9173 96.4801 44.8813C96.5604 44.8453 96.6003 44.7613 96.6003 44.6293V43.2193H96.3779C96.2735 43.2193 96.1893 43.2233 96.1255 43.2313C96.0616 43.2394 96.0053 43.2653 95.9572 43.3093C95.9091 43.3493 95.8828 43.4093 95.8791 43.4893ZM98.727 41.1973L100.169 41.0893V44.8453C100.245 44.8613 100.314 44.8733 100.374 44.8813C100.434 44.8894 100.484 44.8954 100.524 44.8993L100.458 45.9553C99.8449 45.9553 99.4385 45.9193 99.2379 45.8473C99.0696 45.7873 98.9411 45.7093 98.8532 45.6133C98.7691 45.5173 98.727 45.3793 98.727 45.1993V41.1973ZM102.364 44.6533V44.9053C102.436 44.9134 102.508 44.9194 102.58 44.9233C102.652 44.9273 102.724 44.9293 102.797 44.9293C103.245 44.9293 103.698 44.8573 104.155 44.7133L104.323 45.7693C103.782 45.9133 103.249 45.9853 102.724 45.9853C102.051 45.9853 101.564 45.8293 101.264 45.5173C100.963 45.2014 100.813 44.7214 100.813 44.0773C100.813 43.4333 100.963 42.9553 101.264 42.6433C101.568 42.3274 102.055 42.1693 102.724 42.1693C103.061 42.1693 103.341 42.1913 103.566 42.2353C103.79 42.2753 103.97 42.3454 104.107 42.4453C104.246 42.5413 104.345 42.6733 104.401 42.8413C104.461 43.0054 104.491 43.2133 104.491 43.4653C104.491 43.6733 104.455 43.8533 104.383 44.0053C104.315 44.1533 104.198 44.2753 104.035 44.3713C103.87 44.4673 103.651 44.5393 103.379 44.5873C103.107 44.6314 102.768 44.6533 102.364 44.6533ZM102.364 43.5253V43.8193H102.658C102.834 43.8193 102.96 43.8013 103.037 43.7653C103.117 43.7293 103.157 43.6453 103.157 43.5133V43.2193H102.863C102.686 43.2193 102.558 43.2373 102.478 43.2733C102.401 43.3093 102.364 43.3933 102.364 43.5253ZM108.852 45.8773V43.3573H108.749C108.686 43.3573 108.623 43.3594 108.563 43.3633C108.507 43.3673 108.457 43.3813 108.413 43.4053C108.368 43.4254 108.335 43.4573 108.311 43.5013C108.287 43.5454 108.275 43.6073 108.275 43.6873V45.8773H106.832V42.2773H107.553L107.878 42.6073C108.17 42.3154 108.555 42.1693 109.032 42.1693C109.504 42.1693 109.849 42.2674 110.066 42.4633C110.366 42.2674 110.706 42.1693 111.087 42.1693C111.476 42.1693 111.776 42.2434 111.989 42.3913C112.205 42.5353 112.313 42.7373 112.313 42.9973V45.8773H110.871V43.3573H110.769C110.712 43.3573 110.657 43.3594 110.6 43.3633C110.544 43.3673 110.495 43.3793 110.45 43.3993C110.41 43.4153 110.374 43.4434 110.342 43.4833C110.314 43.5233 110.298 43.5773 110.294 43.6453V45.8773H108.852ZM112.923 42.2773H114.365V44.9353H114.587C114.764 44.9353 114.89 44.9173 114.966 44.8813C115.046 44.8453 115.086 44.7613 115.086 44.6293V42.2773H116.528V45.8773H115.807L115.387 45.4693C115.098 45.8134 114.688 45.9853 114.155 45.9853C113.726 45.9853 113.414 45.8953 113.217 45.7153C113.021 45.5314 112.923 45.2254 112.923 44.7973V42.2773ZM117.598 42.4213C117.907 42.2533 118.33 42.1693 118.866 42.1693C119.407 42.1693 119.902 42.2434 120.351 42.3913L120.183 43.3693C119.995 43.3133 119.808 43.2733 119.624 43.2493C119.44 43.2253 119.251 43.2133 119.059 43.2133C119.003 43.2133 118.932 43.2154 118.848 43.2193C118.769 43.2233 118.676 43.2313 118.572 43.2433V43.4713C118.793 43.4713 119.019 43.4833 119.251 43.5073C119.484 43.5274 119.694 43.5793 119.882 43.6633C120.074 43.7434 120.231 43.8653 120.351 44.0293C120.476 44.1893 120.537 44.4094 120.537 44.6893C120.537 44.8853 120.515 45.0613 120.471 45.2173C120.427 45.3694 120.359 45.4913 120.267 45.5833C120.171 45.6754 120.071 45.7493 119.966 45.8053C119.866 45.8614 119.734 45.9013 119.57 45.9253C119.442 45.9454 119.304 45.9593 119.155 45.9673C119.011 45.9793 118.854 45.9853 118.686 45.9853C118.097 45.9853 117.558 45.9154 117.069 45.7753L117.25 44.7553C117.454 44.8153 117.664 44.8613 117.881 44.8933C118.097 44.9254 118.324 44.9413 118.56 44.9413C118.668 44.9413 118.77 44.9393 118.866 44.9353C118.967 44.9314 119.063 44.9233 119.155 44.9113V44.6833C118.77 44.6833 118.448 44.6593 118.187 44.6113C117.931 44.5594 117.723 44.4814 117.562 44.3773C117.406 44.2733 117.294 44.1373 117.226 43.9693C117.162 43.8013 117.129 43.6013 117.129 43.3693C117.129 42.9053 117.286 42.5893 117.598 42.4213ZM122.484 43.6573V45.8773H121.041V41.1973L122.484 41.0893V42.4093C122.792 42.2494 123.133 42.1693 123.505 42.1693C123.882 42.1693 124.166 42.2434 124.359 42.3913C124.551 42.5353 124.647 42.7373 124.647 42.9973V45.8773H123.205V43.3573H122.982C122.806 43.3573 122.678 43.3753 122.598 43.4113C122.522 43.4473 122.484 43.5293 122.484 43.6573ZM125.332 45.8773V42.2773H126.053L126.449 42.6793C126.738 42.4153 127.095 42.2453 127.519 42.1693L127.603 43.5313C127.547 43.5313 127.479 43.5394 127.399 43.5553C127.319 43.5713 127.237 43.5913 127.153 43.6153C127.072 43.6393 126.999 43.6693 126.93 43.7053C126.862 43.7374 126.81 43.7753 126.774 43.8193V45.8773H125.332ZM127.893 44.0773C127.893 43.4333 128.044 42.9553 128.344 42.6433C128.645 42.3274 129.131 42.1693 129.804 42.1693C130.478 42.1693 130.964 42.3274 131.265 42.6433C131.565 42.9553 131.716 43.4333 131.716 44.0773C131.716 44.7214 131.565 45.2014 131.265 45.5173C130.964 45.8293 130.478 45.9853 129.804 45.9853C129.147 45.9853 128.664 45.8314 128.356 45.5233C128.047 45.2153 127.893 44.7334 127.893 44.0773ZM129.444 43.5253V44.9353H129.666C129.842 44.9353 129.968 44.9173 130.045 44.8813C130.125 44.8453 130.165 44.7613 130.165 44.6293V43.2193H129.943C129.766 43.2193 129.638 43.2373 129.558 43.2733C129.481 43.3093 129.444 43.3933 129.444 43.5253ZM132.148 44.0773C132.148 43.4333 132.299 42.9553 132.599 42.6433C132.9 42.3274 133.386 42.1693 134.06 42.1693C134.733 42.1693 135.219 42.3274 135.52 42.6433C135.82 42.9553 135.971 43.4333 135.971 44.0773C135.971 44.7214 135.82 45.2014 135.52 45.5173C135.219 45.8293 134.733 45.9853 134.06 45.9853C133.402 45.9853 132.919 45.8314 132.611 45.5233C132.302 45.2153 132.148 44.7334 132.148 44.0773ZM133.699 43.5253V44.9353H133.921C134.097 44.9353 134.223 44.9173 134.3 44.8813C134.38 44.8453 134.42 44.7613 134.42 44.6293V43.2193H134.198C134.021 43.2193 133.893 43.2373 133.813 43.2733C133.736 43.3093 133.699 43.3933 133.699 43.5253ZM138.567 45.8773V43.3573H138.465C138.4 43.3573 138.339 43.3594 138.278 43.3633C138.222 43.3673 138.172 43.3813 138.128 43.4053C138.084 43.4254 138.05 43.4573 138.026 43.5013C138.002 43.5454 137.99 43.6073 137.99 43.6873V45.8773H136.548V42.2773H137.269L137.593 42.6073C137.886 42.3154 138.27 42.1693 138.747 42.1693C139.22 42.1693 139.565 42.2674 139.781 42.4633C140.081 42.2674 140.422 42.1693 140.803 42.1693C141.191 42.1693 141.492 42.2434 141.704 42.3913C141.921 42.5353 142.029 42.7373 142.029 42.9973V45.8773H140.586V43.3573H140.484C140.428 43.3573 140.371 43.3594 140.316 43.3633C140.26 43.3673 140.209 43.3793 140.166 43.3993C140.125 43.4153 140.089 43.4434 140.057 43.4833C140.029 43.5233 140.013 43.5773 140.009 43.6453V45.8773H138.567ZM143.059 42.4213C143.367 42.2533 143.79 42.1693 144.327 42.1693C144.868 42.1693 145.363 42.2434 145.811 42.3913L145.643 43.3693C145.454 43.3133 145.268 43.2733 145.084 43.2493C144.9 43.2253 144.711 43.2133 144.519 43.2133C144.463 43.2133 144.393 43.2154 144.309 43.2193C144.228 43.2233 144.137 43.2313 144.032 43.2433V43.4713C144.252 43.4713 144.479 43.4833 144.711 43.5073C144.944 43.5274 145.154 43.5793 145.342 43.6633C145.535 43.7434 145.691 43.8653 145.811 44.0293C145.935 44.1893 145.998 44.4094 145.998 44.6893C145.998 44.8853 145.976 45.0613 145.931 45.2173C145.887 45.3694 145.819 45.4913 145.727 45.5833C145.631 45.6754 145.531 45.7493 145.427 45.8053C145.327 45.8614 145.194 45.9013 145.03 45.9253C144.901 45.9454 144.763 45.9593 144.615 45.9673C144.471 45.9793 144.315 45.9853 144.146 45.9853C143.557 45.9853 143.019 45.9154 142.53 45.7753L142.71 44.7553C142.914 44.8153 143.125 44.8613 143.341 44.8933C143.557 44.9254 143.784 44.9413 144.02 44.9413C144.128 44.9413 144.231 44.9393 144.327 44.9353C144.427 44.9314 144.523 44.9233 144.615 44.9113V44.6833C144.231 44.6833 143.908 44.6593 143.648 44.6113C143.391 44.5594 143.183 44.4814 143.023 44.3773C142.866 44.2733 142.754 44.1373 142.686 43.9693C142.622 43.8013 142.59 43.6013 142.59 43.3693C142.59 42.9053 142.746 42.5893 143.059 42.4213Z" fill="white"/>
</g>
<defs>
<clipPath id="clip0_2001_126">
<rect width="151" height="54" fill="white"/>
</clipPath>
</defs>
</svg>
