<svg width="151" height="54" viewBox="0 0 151 54" fill="none" xmlns="http://www.w3.org/2000/svg">
<g clip-path="url(#clip0_2001_126)">
<path d="M13.8285 30.3725C13.8285 30.3725 14.0215 32.9483 13.9442 34.2554C13.8671 35.5625 13.7126 36.6773 13.7126 36.6773L14.9481 46.5959L15.0253 47.6339C15.0253 47.6339 17.1875 48.9026 21.7048 48.9026C28.4615 48.9026 31.4731 47.8262 32.4769 45.6733C33.2877 43.9433 31.8591 40.022 31.5888 38.6765C30.6236 34.2169 31.2028 30.9876 31.2028 30.9876L13.8285 30.3725Z" fill="#C4A878"/>
<path d="M13.8285 30.3725C13.8285 30.3725 14.0215 32.9483 13.9442 34.2554C13.8671 35.5625 13.7126 36.6773 13.7126 36.6773L14.9481 46.5959L15.0253 47.6339C15.0253 47.6339 17.1875 48.9026 21.7048 48.9026C28.4615 48.9026 31.4731 47.8262 32.4769 45.6733C33.2877 43.9433 31.8591 40.022 31.5888 38.6765C30.6236 34.2169 31.2028 30.9876 31.2028 30.9876L13.8285 30.3725Z" fill="#C4A878"/>
<path d="M13.8285 30.3725C13.8285 30.3725 14.0215 32.9483 13.9442 34.2554C13.8671 35.5625 13.7126 36.6773 13.7126 36.6773L14.9481 46.5959L15.0253 47.6339C15.0253 47.6339 17.1875 48.9026 21.7048 48.9026C28.4615 48.9026 31.4731 47.8262 32.4769 45.6733C33.2877 43.9433 31.8591 40.022 31.5888 38.6765C30.6236 34.2169 31.2028 30.9876 31.2028 30.9876L13.8285 30.3725Z" fill="#C4A878"/>
<path d="M13.8285 30.3725C13.8285 30.3725 14.0215 32.9483 13.9442 34.2554C13.8671 35.5625 13.7126 36.6773 13.7126 36.6773L14.9481 46.5959L15.0253 47.6339C15.0253 47.6339 17.1875 48.9026 21.7048 48.9026C28.4615 48.9026 31.4731 47.8262 32.4769 45.6733C33.2877 43.9433 31.8591 40.022 31.5888 38.6765C30.6236 34.2169 31.2028 30.9876 31.2028 30.9876L13.8285 30.3725Z" fill="#C4A878"/>
<path d="M11.8979 44.8659C12.3612 46.9804 15.2569 47.7877 15.2569 47.7877C15.2569 47.7877 19.4268 48.0184 22.0908 47.6723C24.7935 47.2879 27.0329 46.6728 27.2645 45.0966C27.4962 43.5204 27.4189 42.4439 27.3417 40.7908C27.3031 40.0604 27.2259 38.0228 27.2259 38.0228C27.2259 38.0228 24.1371 38.1766 20.0059 37.8691C15.9519 37.5615 13.7511 36.6004 13.7511 36.6004C13.7511 36.6004 13.172 39.253 12.7473 40.3295C12.3226 41.329 11.4346 42.7515 11.8979 44.8659Z" fill="#E8D4AF"/>
<path d="M11.8979 44.8659C12.3612 46.9804 15.2569 47.7877 15.2569 47.7877C15.2569 47.7877 19.4268 48.0184 22.0908 47.6723C24.7935 47.2879 27.0329 46.6728 27.2645 45.0966C27.4962 43.5204 27.4189 42.4439 27.3417 40.7908C27.3031 40.0604 27.2259 38.0228 27.2259 38.0228C27.2259 38.0228 24.1371 38.1766 20.0059 37.8691C15.9519 37.5615 13.7511 36.6004 13.7511 36.6004C13.7511 36.6004 13.172 39.253 12.7473 40.3295C12.3226 41.329 11.4346 42.7515 11.8979 44.8659Z" fill="#E8D4AF"/>
<path d="M11.8979 44.8659C12.3612 46.9804 15.2569 47.7877 15.2569 47.7877C15.2569 47.7877 19.4268 48.0184 22.0908 47.6723C24.7935 47.2879 27.0329 46.6728 27.2645 45.0966C27.4962 43.5204 27.4189 42.4439 27.3417 40.7908C27.3031 40.0604 27.2259 38.0228 27.2259 38.0228C27.2259 38.0228 24.1371 38.1766 20.0059 37.8691C15.9519 37.5615 13.7511 36.6004 13.7511 36.6004C13.7511 36.6004 13.172 39.253 12.7473 40.3295C12.3226 41.329 11.4346 42.7515 11.8979 44.8659Z" fill="#E8D4AF"/>
<path d="M11.8979 44.8659C12.3612 46.9804 15.2569 47.7877 15.2569 47.7877C15.2569 47.7877 19.4268 48.0184 22.0908 47.6723C24.7935 47.2879 27.0329 46.6728 27.2645 45.0966C27.4962 43.5204 27.4189 42.4439 27.3417 40.7908C27.3031 40.0604 27.2259 38.0228 27.2259 38.0228C27.2259 38.0228 24.1371 38.1766 20.0059 37.8691C15.9519 37.5615 13.7511 36.6004 13.7511 36.6004C13.7511 36.6004 13.172 39.253 12.7473 40.3295C12.3226 41.329 11.4346 42.7515 11.8979 44.8659Z" fill="#E8D4AF"/>
<path d="M22.6345 33.6477C37.7309 33.6862 44.5263 23.4984 44.2946 13.3492C44.0243 4.23787 30.0476 3.12299 23.0978 3.00766C12.6733 2.85388 0.240925 4.96831 0.00926876 13.6183C-0.299609 23.6906 7.07485 33.6477 22.6345 33.6477Z" fill="#E6441F"/>
<path d="M22.6345 33.6477C37.7309 33.6862 44.5263 23.4984 44.2946 13.3492C44.0243 4.23787 30.0476 3.12299 23.0978 3.00766C12.6733 2.85388 0.240925 4.96831 0.00926876 13.6183C-0.299609 23.6906 7.07485 33.6477 22.6345 33.6477Z" fill="#E6441F"/>
<path d="M22.6345 33.6477C37.7309 33.6862 44.5263 23.4984 44.2946 13.3492C44.0243 4.23787 30.0476 3.12299 23.0978 3.00766C12.6733 2.85388 0.240925 4.96831 0.00926876 13.6183C-0.299609 23.6906 7.07485 33.6477 22.6345 33.6477Z" fill="#E6441F"/>
<path d="M22.6345 33.6477C37.7309 33.6862 44.5263 23.4984 44.2946 13.3492C44.0243 4.23787 30.0476 3.12299 23.0978 3.00766C12.6733 2.85388 0.240925 4.96831 0.00926876 13.6183C-0.299609 23.6906 7.07485 33.6477 22.6345 33.6477Z" fill="#E6441F"/>
<path d="M37.5349 25.2698C39.2963 23.603 40.2684 20.4257 38.9386 18.9074C37.6844 17.5055 35.3527 18.5489 33.7468 20.141C32.1409 21.7331 30.5664 23.8255 31.428 25.6832C32.5158 27.9286 35.5385 27.164 37.5349 25.2698Z" fill="#FE8468"/>
<path d="M37.5349 25.2698C39.2963 23.603 40.2684 20.4257 38.9386 18.9074C37.6844 17.5055 35.3527 18.5489 33.7468 20.141C32.1409 21.7331 30.5664 23.8255 31.428 25.6832C32.5158 27.9286 35.5385 27.164 37.5349 25.2698Z" fill="#FE8468"/>
<path d="M37.5349 25.2698C39.2963 23.603 40.2684 20.4257 38.9386 18.9074C37.6844 17.5055 35.3527 18.5489 33.7468 20.141C32.1409 21.7331 30.5664 23.8255 31.428 25.6832C32.5158 27.9286 35.5385 27.164 37.5349 25.2698Z" fill="#FE8468"/>
<path d="M37.5349 25.2698C39.2963 23.603 40.2684 20.4257 38.9386 18.9074C37.6844 17.5055 35.3527 18.5489 33.7468 20.141C32.1409 21.7331 30.5664 23.8255 31.428 25.6832C32.5158 27.9286 35.5385 27.164 37.5349 25.2698Z" fill="#FE8468"/>
<path d="M37.3783 9.54765C37.3783 11.6412 30.7153 13.3384 22.4961 13.3384C14.277 13.3384 7.61409 11.6412 7.61409 9.54765C7.61409 7.45409 14.277 5.75692 22.4961 5.75692C30.7153 5.75692 37.3783 7.45409 37.3783 9.54765Z" fill="#FE8468"/>
<path d="M37.3783 9.54765C37.3783 11.6412 30.7153 13.3384 22.4961 13.3384C14.277 13.3384 7.61409 11.6412 7.61409 9.54765C7.61409 7.45409 14.277 5.75692 22.4961 5.75692C30.7153 5.75692 37.3783 7.45409 37.3783 9.54765Z" fill="#FE8468"/>
<path d="M37.3783 9.54765C37.3783 11.6412 30.7153 13.3384 22.4961 13.3384C14.277 13.3384 7.61409 11.6412 7.61409 9.54765C7.61409 7.45409 14.277 5.75692 22.4961 5.75692C30.7153 5.75692 37.3783 7.45409 37.3783 9.54765Z" fill="#FE8468"/>
<path d="M37.3783 9.54765C37.3783 11.6412 30.7153 13.3384 22.4961 13.3384C14.277 13.3384 7.61409 11.6412 7.61409 9.54765C7.61409 7.45409 14.277 5.75692 22.4961 5.75692C30.7153 5.75692 37.3783 7.45409 37.3783 9.54765Z" fill="#FE8468"/>
<path d="M128.069 42.8773C127.065 42.8773 126.223 42.6274 125.544 42.1274C124.894 41.5981 124.436 40.8924 124.17 40.0102C123.935 39.1867 123.787 38.2898 123.727 37.3194C123.698 36.349 123.683 34.9816 123.683 33.2171C123.683 31.5704 123.609 30.35 123.462 29.556C123.343 28.762 123.034 28.365 122.531 28.365C121.941 28.365 121.528 28.6297 121.291 29.159C121.055 29.6589 120.936 30.3794 120.936 31.3204C120.936 32.1732 121.055 33.5112 121.291 35.3344C121.32 35.6873 121.38 36.2461 121.468 37.0106C121.557 37.7752 121.601 38.4075 121.601 38.9074C121.601 40.3189 121.276 41.3188 120.627 41.9069C120.006 42.4951 119.091 42.7891 117.88 42.7891C116.433 42.7891 115.177 42.0098 114.114 40.4512C113.051 38.8927 112.253 36.9518 111.722 34.6287C111.19 32.2761 110.924 29.9677 110.924 27.7034C110.924 24.9979 111.308 22.4836 112.076 20.1605C112.874 17.8373 114.055 15.97 115.621 14.5584C117.215 13.1469 119.135 12.4411 121.38 12.4411C123.27 12.4411 124.776 13.0292 125.898 14.2055C127.021 15.3524 127.773 16.7492 128.157 18.396C128.483 16.7786 129.206 15.3818 130.328 14.2055C131.48 13.0292 132.986 12.4411 134.847 12.4411C137.062 12.4411 138.952 13.1322 140.517 14.5143C142.112 15.867 143.323 17.7638 144.15 20.2046C145.006 22.6454 145.434 25.4684 145.434 28.6738C145.434 30.7616 145.139 32.923 144.549 35.158C143.958 37.3635 143.131 39.2014 142.068 40.6718C141.004 42.1421 139.794 42.8773 138.435 42.8773C137.195 42.8773 136.25 42.5686 135.6 41.951C134.95 41.3335 134.625 40.3189 134.625 38.9074C134.625 38.2604 134.743 37.0547 134.98 35.2903C135.216 33.4083 135.334 32.0556 135.334 31.2322C135.334 29.3207 134.817 28.365 133.783 28.365C133.252 28.365 132.913 28.7914 132.765 29.6442C132.647 30.497 132.573 31.8791 132.543 33.7906C132.543 35.2316 132.514 36.4372 132.454 37.4076C132.396 38.3486 132.263 39.2161 132.056 40.0102C131.82 40.8629 131.347 41.554 130.639 42.0833C129.959 42.6127 129.102 42.8773 128.069 42.8773Z" fill="white"/>
<path d="M128.069 42.8773C127.065 42.8773 126.223 42.6274 125.544 42.1274C124.894 41.5981 124.436 40.8924 124.17 40.0102C123.935 39.1867 123.787 38.2898 123.727 37.3194C123.698 36.349 123.683 34.9816 123.683 33.2171C123.683 31.5704 123.609 30.35 123.462 29.556C123.343 28.762 123.034 28.365 122.531 28.365C121.941 28.365 121.528 28.6297 121.291 29.159C121.055 29.6589 120.936 30.3794 120.936 31.3204C120.936 32.1732 121.055 33.5112 121.291 35.3344C121.32 35.6873 121.38 36.2461 121.468 37.0106C121.557 37.7752 121.601 38.4075 121.601 38.9074C121.601 40.3189 121.276 41.3188 120.627 41.9069C120.006 42.4951 119.091 42.7891 117.88 42.7891C116.433 42.7891 115.177 42.0098 114.114 40.4512C113.051 38.8927 112.253 36.9518 111.722 34.6287C111.19 32.2761 110.924 29.9677 110.924 27.7034C110.924 24.9979 111.308 22.4836 112.076 20.1605C112.874 17.8373 114.055 15.97 115.621 14.5584C117.215 13.1469 119.135 12.4411 121.38 12.4411C123.27 12.4411 124.776 13.0292 125.898 14.2055C127.021 15.3524 127.773 16.7492 128.157 18.396C128.483 16.7786 129.206 15.3818 130.328 14.2055C131.48 13.0292 132.986 12.4411 134.847 12.4411C137.062 12.4411 138.952 13.1322 140.517 14.5143C142.112 15.867 143.323 17.7638 144.15 20.2046C145.006 22.6454 145.434 25.4684 145.434 28.6738C145.434 30.7616 145.139 32.923 144.549 35.158C143.958 37.3635 143.131 39.2014 142.068 40.6718C141.004 42.1421 139.794 42.8773 138.435 42.8773C137.195 42.8773 136.25 42.5686 135.6 41.951C134.95 41.3335 134.625 40.3189 134.625 38.9074C134.625 38.2604 134.743 37.0547 134.98 35.2903C135.216 33.4083 135.334 32.0556 135.334 31.2322C135.334 29.3207 134.817 28.365 133.783 28.365C133.252 28.365 132.913 28.7914 132.765 29.6442C132.647 30.497 132.573 31.8791 132.543 33.7906C132.543 35.2316 132.514 36.4372 132.454 37.4076C132.396 38.3486 132.263 39.2161 132.056 40.0102C131.82 40.8629 131.347 41.554 130.639 42.0833C129.959 42.6127 129.102 42.8773 128.069 42.8773Z" fill="white"/>
<path d="M128.069 42.8773C127.065 42.8773 126.223 42.6274 125.544 42.1274C124.894 41.5981 124.436 40.8924 124.17 40.0102C123.935 39.1867 123.787 38.2898 123.727 37.3194C123.698 36.349 123.683 34.9816 123.683 33.2171C123.683 31.5704 123.609 30.35 123.462 29.556C123.343 28.762 123.034 28.365 122.531 28.365C121.941 28.365 121.528 28.6297 121.291 29.159C121.055 29.6589 120.936 30.3794 120.936 31.3204C120.936 32.1732 121.055 33.5112 121.291 35.3344C121.32 35.6873 121.38 36.2461 121.468 37.0106C121.557 37.7752 121.601 38.4075 121.601 38.9074C121.601 40.3189 121.276 41.3188 120.627 41.9069C120.006 42.4951 119.091 42.7891 117.88 42.7891C116.433 42.7891 115.177 42.0098 114.114 40.4512C113.051 38.8927 112.253 36.9518 111.722 34.6287C111.19 32.2761 110.924 29.9677 110.924 27.7034C110.924 24.9979 111.308 22.4836 112.076 20.1605C112.874 17.8373 114.055 15.97 115.621 14.5584C117.215 13.1469 119.135 12.4411 121.38 12.4411C123.27 12.4411 124.776 13.0292 125.898 14.2055C127.021 15.3524 127.773 16.7492 128.157 18.396C128.483 16.7786 129.206 15.3818 130.328 14.2055C131.48 13.0292 132.986 12.4411 134.847 12.4411C137.062 12.4411 138.952 13.1322 140.517 14.5143C142.112 15.867 143.323 17.7638 144.15 20.2046C145.006 22.6454 145.434 25.4684 145.434 28.6738C145.434 30.7616 145.139 32.923 144.549 35.158C143.958 37.3635 143.131 39.2014 142.068 40.6718C141.004 42.1421 139.794 42.8773 138.435 42.8773C137.195 42.8773 136.25 42.5686 135.6 41.951C134.95 41.3335 134.625 40.3189 134.625 38.9074C134.625 38.2604 134.743 37.0547 134.98 35.2903C135.216 33.4083 135.334 32.0556 135.334 31.2322C135.334 29.3207 134.817 28.365 133.783 28.365C133.252 28.365 132.913 28.7914 132.765 29.6442C132.647 30.497 132.573 31.8791 132.543 33.7906C132.543 35.2316 132.514 36.4372 132.454 37.4076C132.396 38.3486 132.263 39.2161 132.056 40.0102C131.82 40.8629 131.347 41.554 130.639 42.0833C129.959 42.6127 129.102 42.8773 128.069 42.8773Z" fill="white"/>
<path d="M128.069 42.8773C127.065 42.8773 126.223 42.6274 125.544 42.1274C124.894 41.5981 124.436 40.8924 124.17 40.0102C123.935 39.1867 123.787 38.2898 123.727 37.3194C123.698 36.349 123.683 34.9816 123.683 33.2171C123.683 31.5704 123.609 30.35 123.462 29.556C123.343 28.762 123.034 28.365 122.531 28.365C121.941 28.365 121.528 28.6297 121.291 29.159C121.055 29.6589 120.936 30.3794 120.936 31.3204C120.936 32.1732 121.055 33.5112 121.291 35.3344C121.32 35.6873 121.38 36.2461 121.468 37.0106C121.557 37.7752 121.601 38.4075 121.601 38.9074C121.601 40.3189 121.276 41.3188 120.627 41.9069C120.006 42.4951 119.091 42.7891 117.88 42.7891C116.433 42.7891 115.177 42.0098 114.114 40.4512C113.051 38.8927 112.253 36.9518 111.722 34.6287C111.19 32.2761 110.924 29.9677 110.924 27.7034C110.924 24.9979 111.308 22.4836 112.076 20.1605C112.874 17.8373 114.055 15.97 115.621 14.5584C117.215 13.1469 119.135 12.4411 121.38 12.4411C123.27 12.4411 124.776 13.0292 125.898 14.2055C127.021 15.3524 127.773 16.7492 128.157 18.396C128.483 16.7786 129.206 15.3818 130.328 14.2055C131.48 13.0292 132.986 12.4411 134.847 12.4411C137.062 12.4411 138.952 13.1322 140.517 14.5143C142.112 15.867 143.323 17.7638 144.15 20.2046C145.006 22.6454 145.434 25.4684 145.434 28.6738C145.434 30.7616 145.139 32.923 144.549 35.158C143.958 37.3635 143.131 39.2014 142.068 40.6718C141.004 42.1421 139.794 42.8773 138.435 42.8773C137.195 42.8773 136.25 42.5686 135.6 41.951C134.95 41.3335 134.625 40.3189 134.625 38.9074C134.625 38.2604 134.743 37.0547 134.98 35.2903C135.216 33.4083 135.334 32.0556 135.334 31.2322C135.334 29.3207 134.817 28.365 133.783 28.365C133.252 28.365 132.913 28.7914 132.765 29.6442C132.647 30.497 132.573 31.8791 132.543 33.7906C132.543 35.2316 132.514 36.4372 132.454 37.4076C132.396 38.3486 132.263 39.2161 132.056 40.0102C131.82 40.8629 131.347 41.554 130.639 42.0833C129.959 42.6127 129.102 42.8773 128.069 42.8773Z" fill="white"/>
<path d="M105.777 35.8196C107.194 36.2608 107.904 37.1871 107.904 38.5986C107.904 39.9219 107.225 40.9659 105.866 41.7305C104.507 42.4951 102.159 42.8774 98.8219 42.8774C94.6577 42.8774 91.084 41.8775 88.1016 39.8778C85.1477 37.8782 83.6715 33.9082 83.6715 27.968C83.6715 24.9685 84.1884 22.263 85.2221 19.8517C86.2558 17.4403 87.7913 15.5288 89.8287 14.1173C91.8961 12.7058 94.4218 12 97.4043 12C101.391 12 104.197 12.6176 105.821 13.8526C107.445 15.0583 108.258 16.5434 108.258 18.3078C108.258 19.1312 108.051 19.8958 107.638 20.6015C107.225 21.2779 106.604 21.8072 105.777 22.1895C105.068 22.5424 104.153 22.7189 103.03 22.7189L101.834 22.6748C101.598 22.6454 101.258 22.6307 100.816 22.6307C99.2794 22.6307 98.0691 22.91 97.1826 23.4687C96.2969 23.9981 95.6914 24.8215 95.3669 25.9389C96.6072 25.8801 97.7295 25.8507 98.7332 25.8507C101.716 25.8507 103.651 25.9389 104.537 26.1154C105.541 26.3212 106.309 26.7182 106.841 27.3063C107.402 27.8945 107.682 28.5855 107.682 29.3795C107.682 30.1736 107.416 30.8646 106.885 31.4528C106.353 32.0114 105.555 32.3938 104.492 32.5996C103.665 32.7761 101.657 32.8643 98.4673 32.8643C97.1684 32.8643 96.2526 32.8496 95.7207 32.8202C96.6365 34.761 98.3493 35.7314 100.86 35.7314C101.007 35.7314 101.347 35.702 101.879 35.6432C102.588 35.5844 103.193 35.555 103.695 35.555C104.552 35.555 105.246 35.6432 105.777 35.8196Z" fill="white"/>
<path d="M105.777 35.8196C107.194 36.2608 107.904 37.1871 107.904 38.5986C107.904 39.9219 107.225 40.9659 105.866 41.7305C104.507 42.4951 102.159 42.8774 98.8219 42.8774C94.6577 42.8774 91.084 41.8775 88.1016 39.8778C85.1477 37.8782 83.6715 33.9082 83.6715 27.968C83.6715 24.9685 84.1884 22.263 85.2221 19.8517C86.2558 17.4403 87.7913 15.5288 89.8287 14.1173C91.8961 12.7058 94.4218 12 97.4043 12C101.391 12 104.197 12.6176 105.821 13.8526C107.445 15.0583 108.258 16.5434 108.258 18.3078C108.258 19.1312 108.051 19.8958 107.638 20.6015C107.225 21.2779 106.604 21.8072 105.777 22.1895C105.068 22.5424 104.153 22.7189 103.03 22.7189L101.834 22.6748C101.598 22.6454 101.258 22.6307 100.816 22.6307C99.2794 22.6307 98.0691 22.91 97.1826 23.4687C96.2969 23.9981 95.6914 24.8215 95.3669 25.9389C96.6072 25.8801 97.7295 25.8507 98.7332 25.8507C101.716 25.8507 103.651 25.9389 104.537 26.1154C105.541 26.3212 106.309 26.7182 106.841 27.3063C107.402 27.8945 107.682 28.5855 107.682 29.3795C107.682 30.1736 107.416 30.8646 106.885 31.4528C106.353 32.0114 105.555 32.3938 104.492 32.5996C103.665 32.7761 101.657 32.8643 98.4673 32.8643C97.1684 32.8643 96.2526 32.8496 95.7207 32.8202C96.6365 34.761 98.3493 35.7314 100.86 35.7314C101.007 35.7314 101.347 35.702 101.879 35.6432C102.588 35.5844 103.193 35.555 103.695 35.555C104.552 35.555 105.246 35.6432 105.777 35.8196Z" fill="white"/>
<path d="M105.777 35.8196C107.194 36.2608 107.904 37.1871 107.904 38.5986C107.904 39.9219 107.225 40.9659 105.866 41.7305C104.507 42.4951 102.159 42.8774 98.8219 42.8774C94.6577 42.8774 91.084 41.8775 88.1016 39.8778C85.1477 37.8782 83.6715 33.9082 83.6715 27.968C83.6715 24.9685 84.1884 22.263 85.2221 19.8517C86.2558 17.4403 87.7913 15.5288 89.8287 14.1173C91.8961 12.7058 94.4218 12 97.4043 12C101.391 12 104.197 12.6176 105.821 13.8526C107.445 15.0583 108.258 16.5434 108.258 18.3078C108.258 19.1312 108.051 19.8958 107.638 20.6015C107.225 21.2779 106.604 21.8072 105.777 22.1895C105.068 22.5424 104.153 22.7189 103.03 22.7189L101.834 22.6748C101.598 22.6454 101.258 22.6307 100.816 22.6307C99.2794 22.6307 98.0691 22.91 97.1826 23.4687C96.2969 23.9981 95.6914 24.8215 95.3669 25.9389C96.6072 25.8801 97.7295 25.8507 98.7332 25.8507C101.716 25.8507 103.651 25.9389 104.537 26.1154C105.541 26.3212 106.309 26.7182 106.841 27.3063C107.402 27.8945 107.682 28.5855 107.682 29.3795C107.682 30.1736 107.416 30.8646 106.885 31.4528C106.353 32.0114 105.555 32.3938 104.492 32.5996C103.665 32.7761 101.657 32.8643 98.4673 32.8643C97.1684 32.8643 96.2526 32.8496 95.7207 32.8202C96.6365 34.761 98.3493 35.7314 100.86 35.7314C101.007 35.7314 101.347 35.702 101.879 35.6432C102.588 35.5844 103.193 35.555 103.695 35.555C104.552 35.555 105.246 35.6432 105.777 35.8196Z" fill="white"/>
<path d="M105.777 35.8196C107.194 36.2608 107.904 37.1871 107.904 38.5986C107.904 39.9219 107.225 40.9659 105.866 41.7305C104.507 42.4951 102.159 42.8774 98.8219 42.8774C94.6577 42.8774 91.084 41.8775 88.1016 39.8778C85.1477 37.8782 83.6715 33.9082 83.6715 27.968C83.6715 24.9685 84.1884 22.263 85.2221 19.8517C86.2558 17.4403 87.7913 15.5288 89.8287 14.1173C91.8961 12.7058 94.4218 12 97.4043 12C101.391 12 104.197 12.6176 105.821 13.8526C107.445 15.0583 108.258 16.5434 108.258 18.3078C108.258 19.1312 108.051 19.8958 107.638 20.6015C107.225 21.2779 106.604 21.8072 105.777 22.1895C105.068 22.5424 104.153 22.7189 103.03 22.7189L101.834 22.6748C101.598 22.6454 101.258 22.6307 100.816 22.6307C99.2794 22.6307 98.0691 22.91 97.1826 23.4687C96.2969 23.9981 95.6914 24.8215 95.3669 25.9389C96.6072 25.8801 97.7295 25.8507 98.7332 25.8507C101.716 25.8507 103.651 25.9389 104.537 26.1154C105.541 26.3212 106.309 26.7182 106.841 27.3063C107.402 27.8945 107.682 28.5855 107.682 29.3795C107.682 30.1736 107.416 30.8646 106.885 31.4528C106.353 32.0114 105.555 32.3938 104.492 32.5996C103.665 32.7761 101.657 32.8643 98.4673 32.8643C97.1684 32.8643 96.2526 32.8496 95.7207 32.8202C96.6365 34.761 98.3493 35.7314 100.86 35.7314C101.007 35.7314 101.347 35.702 101.879 35.6432C102.588 35.5844 103.193 35.555 103.695 35.555C104.552 35.555 105.246 35.6432 105.777 35.8196Z" fill="white"/>
<path d="M67.6634 42.8333C62.7608 42.8039 59.0839 41.5982 56.6326 39.2162C54.2108 36.8342 53 32.9672 53 27.6152C53 22.763 54.1813 18.9548 56.544 16.1905C58.9067 13.3969 62.244 12 66.5559 12C69.2138 12 71.5323 12.397 73.511 13.191C75.4896 13.985 77.0108 15.1172 78.0739 16.5875C79.1369 18.0578 79.6687 19.7929 79.6687 21.7925C79.6687 23.3805 79.3142 24.7921 78.6057 26.0272C77.9266 27.2623 76.9072 28.365 75.5489 29.3354C76.6412 29.5119 77.5863 30.1001 78.3841 31.0999C79.2112 32.0997 79.6244 33.2613 79.6244 34.5846C79.6244 35.9961 79.2405 37.3341 78.4728 38.5986C77.7343 39.8337 76.4647 40.8483 74.6628 41.6423C72.8908 42.4363 70.5577 42.8333 67.6634 42.8333ZM64.6066 26.3801C65.1383 26.6447 65.8028 26.777 66.6002 26.777C67.5453 26.777 68.3574 26.5565 69.0367 26.1154C69.7455 25.6448 70.0999 24.9538 70.0999 24.0422C70.0999 23.16 69.7455 22.4983 69.0367 22.0572C68.3574 21.5867 67.5305 21.3515 66.5559 21.3515C65.788 21.3515 65.1383 21.4838 64.6066 21.7484C64.1932 21.9249 63.8831 22.2337 63.6764 22.6748C63.4696 23.1158 63.3662 23.5864 63.3662 24.0863C63.3662 24.5862 63.4696 25.0568 63.6764 25.4978C63.8831 25.9095 64.1932 26.2036 64.6066 26.3801ZM64.6066 36.7019C65.1678 36.9371 65.8323 37.0548 66.6002 37.0548C67.5453 37.0548 68.3574 36.8636 69.0367 36.4814C69.7455 36.0696 70.0999 35.4668 70.0999 34.6728C70.0999 33.9083 69.7455 33.3201 69.0367 32.9084C68.3279 32.4967 67.5009 32.2908 66.5559 32.2908C65.8176 32.2908 65.1678 32.4085 64.6066 32.6438C64.1932 32.8202 63.8831 33.0995 63.6764 33.4818C63.4696 33.8347 63.3662 34.2317 63.3662 34.6728C63.3662 35.1139 63.4696 35.5256 63.6764 35.9079C63.8831 36.2608 64.1932 36.5255 64.6066 36.7019Z" fill="white"/>
<path d="M67.6634 42.8333C62.7608 42.8039 59.0839 41.5982 56.6326 39.2162C54.2108 36.8342 53 32.9672 53 27.6152C53 22.763 54.1813 18.9548 56.544 16.1905C58.9067 13.3969 62.244 12 66.5559 12C69.2138 12 71.5323 12.397 73.511 13.191C75.4896 13.985 77.0108 15.1172 78.0739 16.5875C79.1369 18.0578 79.6687 19.7929 79.6687 21.7925C79.6687 23.3805 79.3142 24.7921 78.6057 26.0272C77.9266 27.2623 76.9072 28.365 75.5489 29.3354C76.6412 29.5119 77.5863 30.1001 78.3841 31.0999C79.2112 32.0997 79.6244 33.2613 79.6244 34.5846C79.6244 35.9961 79.2405 37.3341 78.4728 38.5986C77.7343 39.8337 76.4647 40.8483 74.6628 41.6423C72.8908 42.4363 70.5577 42.8333 67.6634 42.8333ZM64.6066 26.3801C65.1383 26.6447 65.8028 26.777 66.6002 26.777C67.5453 26.777 68.3574 26.5565 69.0367 26.1154C69.7455 25.6448 70.0999 24.9538 70.0999 24.0422C70.0999 23.16 69.7455 22.4983 69.0367 22.0572C68.3574 21.5867 67.5305 21.3515 66.5559 21.3515C65.788 21.3515 65.1383 21.4838 64.6066 21.7484C64.1932 21.9249 63.8831 22.2337 63.6764 22.6748C63.4696 23.1158 63.3662 23.5864 63.3662 24.0863C63.3662 24.5862 63.4696 25.0568 63.6764 25.4978C63.8831 25.9095 64.1932 26.2036 64.6066 26.3801ZM64.6066 36.7019C65.1678 36.9371 65.8323 37.0548 66.6002 37.0548C67.5453 37.0548 68.3574 36.8636 69.0367 36.4814C69.7455 36.0696 70.0999 35.4668 70.0999 34.6728C70.0999 33.9083 69.7455 33.3201 69.0367 32.9084C68.3279 32.4967 67.5009 32.2908 66.5559 32.2908C65.8176 32.2908 65.1678 32.4085 64.6066 32.6438C64.1932 32.8202 63.8831 33.0995 63.6764 33.4818C63.4696 33.8347 63.3662 34.2317 63.3662 34.6728C63.3662 35.1139 63.4696 35.5256 63.6764 35.9079C63.8831 36.2608 64.1932 36.5255 64.6066 36.7019Z" fill="white"/>
<path d="M67.6634 42.8333C62.7608 42.8039 59.0839 41.5982 56.6326 39.2162C54.2108 36.8342 53 32.9672 53 27.6152C53 22.763 54.1813 18.9548 56.544 16.1905C58.9067 13.3969 62.244 12 66.5559 12C69.2138 12 71.5323 12.397 73.511 13.191C75.4896 13.985 77.0108 15.1172 78.0739 16.5875C79.1369 18.0578 79.6687 19.7929 79.6687 21.7925C79.6687 23.3805 79.3142 24.7921 78.6057 26.0272C77.9266 27.2623 76.9072 28.365 75.5489 29.3354C76.6412 29.5119 77.5863 30.1001 78.3841 31.0999C79.2112 32.0997 79.6244 33.2613 79.6244 34.5846C79.6244 35.9961 79.2405 37.3341 78.4728 38.5986C77.7343 39.8337 76.4647 40.8483 74.6628 41.6423C72.8908 42.4363 70.5577 42.8333 67.6634 42.8333ZM64.6066 26.3801C65.1383 26.6447 65.8028 26.777 66.6002 26.777C67.5453 26.777 68.3574 26.5565 69.0367 26.1154C69.7455 25.6448 70.0999 24.9538 70.0999 24.0422C70.0999 23.16 69.7455 22.4983 69.0367 22.0572C68.3574 21.5867 67.5305 21.3515 66.5559 21.3515C65.788 21.3515 65.1383 21.4838 64.6066 21.7484C64.1932 21.9249 63.8831 22.2337 63.6764 22.6748C63.4696 23.1158 63.3662 23.5864 63.3662 24.0863C63.3662 24.5862 63.4696 25.0568 63.6764 25.4978C63.8831 25.9095 64.1932 26.2036 64.6066 26.3801ZM64.6066 36.7019C65.1678 36.9371 65.8323 37.0548 66.6002 37.0548C67.5453 37.0548 68.3574 36.8636 69.0367 36.4814C69.7455 36.0696 70.0999 35.4668 70.0999 34.6728C70.0999 33.9083 69.7455 33.3201 69.0367 32.9084C68.3279 32.4967 67.5009 32.2908 66.5559 32.2908C65.8176 32.2908 65.1678 32.4085 64.6066 32.6438C64.1932 32.8202 63.8831 33.0995 63.6764 33.4818C63.4696 33.8347 63.3662 34.2317 63.3662 34.6728C63.3662 35.1139 63.4696 35.5256 63.6764 35.9079C63.8831 36.2608 64.1932 36.5255 64.6066 36.7019Z" fill="white"/>
<path d="M67.6634 42.8333C62.7608 42.8039 59.0839 41.5982 56.6326 39.2162C54.2108 36.8342 53 32.9672 53 27.6152C53 22.763 54.1813 18.9548 56.544 16.1905C58.9067 13.3969 62.244 12 66.5559 12C69.2138 12 71.5323 12.397 73.511 13.191C75.4896 13.985 77.0108 15.1172 78.0739 16.5875C79.1369 18.0578 79.6687 19.7929 79.6687 21.7925C79.6687 23.3805 79.3142 24.7921 78.6057 26.0272C77.9266 27.2623 76.9072 28.365 75.5489 29.3354C76.6412 29.5119 77.5863 30.1001 78.3841 31.0999C79.2112 32.0997 79.6244 33.2613 79.6244 34.5846C79.6244 35.9961 79.2405 37.3341 78.4728 38.5986C77.7343 39.8337 76.4647 40.8483 74.6628 41.6423C72.8908 42.4363 70.5577 42.8333 67.6634 42.8333ZM64.6066 26.3801C65.1383 26.6447 65.8028 26.777 66.6002 26.777C67.5453 26.777 68.3574 26.5565 69.0367 26.1154C69.7455 25.6448 70.0999 24.9538 70.0999 24.0422C70.0999 23.16 69.7455 22.4983 69.0367 22.0572C68.3574 21.5867 67.5305 21.3515 66.5559 21.3515C65.788 21.3515 65.1383 21.4838 64.6066 21.7484C64.1932 21.9249 63.8831 22.2337 63.6764 22.6748C63.4696 23.1158 63.3662 23.5864 63.3662 24.0863C63.3662 24.5862 63.4696 25.0568 63.6764 25.4978C63.8831 25.9095 64.1932 26.2036 64.6066 26.3801ZM64.6066 36.7019C65.1678 36.9371 65.8323 37.0548 66.6002 37.0548C67.5453 37.0548 68.3574 36.8636 69.0367 36.4814C69.7455 36.0696 70.0999 35.4668 70.0999 34.6728C70.0999 33.9083 69.7455 33.3201 69.0367 32.9084C68.3279 32.4967 67.5009 32.2908 66.5559 32.2908C65.8176 32.2908 65.1678 32.4085 64.6066 32.6438C64.1932 32.8202 63.8831 33.0995 63.6764 33.4818C63.4696 33.8347 63.3662 34.2317 63.3662 34.6728C63.3662 35.1139 63.4696 35.5256 63.6764 35.9079C63.8831 36.2608 64.1932 36.5255 64.6066 36.7019Z" fill="white"/>
</g>
<defs>
<clipPath id="clip0_2001_126">
<rect width="151" height="54" fill="white"/>
</clipPath>
</defs>
</svg>
